# xmcd CD database file
#
# Track frame offsets:
#	150
#	10010
#	24595
#	36586
#	48789
#	59484
#	71071
#	83920
#	96081
#	109003
#	121249
#	131103
#	143399
#	159037
#	169762
#	179390
#	190688
#	203047
#	212490
#	225196
#
# Disc length: 3194 seconds
#
# Revision: 0
# Processed by: cddbd v1.4PL0 Copyright (c) Steve Scherf et al.
# Submitted via: Feurio! 1.65 - http://www.feurio.com
#
DISCID=000c7814
DTITLE=Various Artist - Country Gold CD 3
DYEAR=1900
DGENRE=
TTITLE0=Hank Locklin - Hank Locklin: Please Help Me I'm Falling
TTITLE1=Jeannie C.Riley - Jeannie C.Riley: Harper Valley P.T.A.
TTITLE2=Roy Drusky - Roy Drusky: Yes, Mr. Peters
TTITLE3=Billie Joe Spears - Billie Joe Spears: Misty Blue
TTITLE4=Ferlin Husky - Ferlin Husky: Wings Of A Dove
TTITLE5=George Jones - George Jones: White Lightning
TTITLE6=Bobby Bare - Bobby Bare: Tender Years
TTITLE7=Waylon Jennings - Waylon Jennings: Don't Think Twice
TTITLE8=Merle Haggard, - Merle Haggard,: The Fightin' Side Of Me
TTITLE9=Jeanne Pruett - Jeanne Pruett: Satin Sheets
TTITLE10=Johnny Russell - Johnny Russell: In A Mansion Stands My Love
TTITLE11=Willie Nelson - Willie Nelson: Shelter Of My Arms
TTITLE12=Cal Smith - Cal Smith: Country Bumpkin
TTITLE13=Charlie Rich - Charlie Rich: Who Will The Next Fool Be
TTITLE14=Leroy Van Dyke - Leroy Van Dyke: Honeycomb
TTITLE15=Kitty Wells - Kitty Wells: Hearbreak USA
TTITLE16=Randy Travis - Randy Travis: Dreamin'
TTITLE17=Charlie Pride - Charlie Pride: Kiss An Angel Good Morning
TTITLE18=Roger Miller - Roger Miller: Heartaches By The Number
TTITLE19=Glen Campbell, - Glen Campbell,: Rhinestone Cowboy
EXTD=
EXTT0=
EXTT1=
EXTT2=
EXTT3=
EXTT4=
EXTT5=
EXTT6=
EXTT7=
EXTT8=
EXTT9=
EXTT10=
EXTT11=
EXTT12=
EXTT13=
EXTT14=
EXTT15=
EXTT16=
EXTT17=
EXTT18=
EXTT19=
PLAYORDER=
